<svg width="54" height="54" viewBox="0 0 54 54" fill="none" xmlns="http://www.w3.org/2000/svg">
<rect x="3" y="3" width="45" height="45" rx="22.5" fill="#FFD200"/>
<path d="M26.625 3C39.6727 3 50.25 13.5773 50.25 26.625C50.25 39.6727 39.6727 50.25 26.625 50.25C13.5773 50.25 3 39.6727 3 26.625C3 13.5773 13.5773 3 26.625 3ZM26.625 6.58594C15.5577 6.58594 6.58594 15.5577 6.58594 26.625C6.58594 37.6923 15.5577 46.6641 26.625 46.6641C37.6923 46.6641 46.6641 37.6923 46.6641 26.625C46.6641 15.5577 37.6923 6.58594 26.625 6.58594ZM29.4076 13.4541C30.0578 12.8044 31.1108 12.8044 31.7609 13.4538L31.7618 13.4548L31.9741 13.6728C38.9111 20.9085 38.9034 32.3426 31.9574 39.569L31.7426 39.7889L31.7246 39.8073C31.4219 40.1109 31.0074 40.2832 30.5749 40.2832C30.3565 40.2832 30.1403 40.2392 29.9392 40.1539C29.7382 40.0685 29.5564 39.9436 29.4047 39.7865C28.8136 39.1576 28.8136 38.1811 29.4024 37.5546L29.4075 37.5493L29.5838 37.3698C35.3418 31.4106 35.3424 21.9489 29.5855 15.9891L29.4075 15.8078L29.3882 15.7881C28.7584 15.1366 28.7649 14.0977 29.4076 13.4541ZM23.3256 18.1813C23.9488 17.6271 24.8888 17.6271 25.5121 18.1812L25.5365 18.2032L25.5415 18.2085L25.6749 18.3483C30.035 22.9918 30.0354 30.2326 25.6763 34.8766L25.5354 35.0242L25.5289 35.03L25.51 35.0466C24.8843 35.5898 23.9538 35.5899 23.328 35.0468L23.2999 35.0219L23.2917 35.0129L23.2745 34.9939C22.715 34.3641 22.7207 33.4111 23.2917 32.7879L23.2986 32.7806L23.3984 32.6787C26.6576 29.2948 26.658 23.9329 23.3994 20.5486L23.294 20.4411L23.2897 20.4362L23.2729 20.4172C22.7244 19.7849 22.73 18.8415 23.2897 18.2157L23.2978 18.2066L23.3067 18.1983L23.3256 18.1813ZM16.9994 24.8192C17.7192 24.1102 18.7958 23.8981 19.7335 24.2842C20.6806 24.6742 21.2988 25.5975 21.2988 26.6221C21.2988 27.6467 20.6806 28.57 19.7335 28.96C19.2752 29.1487 18.7715 29.1985 18.2851 29.1031C17.7988 29.0078 17.3512 28.7715 16.9981 28.4237L16.9763 28.402L16.954 28.3795C16.4939 27.9103 16.2362 27.2793 16.2363 26.6221C16.2363 25.9637 16.495 25.3316 16.9566 24.8621L16.9777 24.8409L16.9994 24.8192Z" fill="#515151" fill-opacity="0.9"/>
</svg>
