<svg width="54" height="58" viewBox="0 0 54 58" fill="none" xmlns="http://www.w3.org/2000/svg">
<rect x="4" y="4" width="46" height="46" rx="23" fill="#FFD200"/>
<path d="M27.0786 3.55573C14.1307 3.55573 3.63428 14.0522 3.63428 27.0001C3.63428 39.948 14.1307 50.4442 27.0786 50.4442C40.0266 50.4442 50.5228 39.948 50.5228 27.0001C50.5228 14.0522 40.0266 3.55573 27.0786 3.55573ZM27.0786 47.6102C15.6957 47.6102 6.46833 38.3829 6.46833 27.0001C6.46833 15.6171 15.6957 6.38972 27.0786 6.38972C38.4616 6.38972 47.6888 15.6171 47.6888 27.0001C47.6888 38.3829 38.4616 47.6102 27.0786 47.6102Z" fill="#515151"/>
<path d="M22.4197 22.3414H24.2831C24.7975 22.3414 25.215 21.9239 25.215 21.4095V17.6826C25.215 17.1684 24.7975 16.751 24.2831 16.751H22.4197C21.9053 16.751 21.4878 17.1685 21.4878 17.6826V21.4095C21.4878 21.9239 21.9053 22.3414 22.4197 22.3414Z" fill="#515151"/>
<path d="M22.4197 30.7271H24.2831C24.7975 30.7271 25.215 30.3096 25.215 29.7952V26.0683C25.215 25.5539 24.7975 25.1367 24.2831 25.1367H22.4197C21.9053 25.1367 21.4878 25.5539 21.4878 26.0683V29.7952C21.4878 30.3096 21.9053 30.7271 22.4197 30.7271Z" fill="#515151"/>
<path d="M29.8735 22.3414H31.7369C32.2513 22.3414 32.6688 21.9239 32.6688 21.4095V17.6826C32.6688 17.1684 32.2513 16.751 31.7369 16.751H29.8735C29.3593 16.751 28.9419 17.1685 28.9419 17.6826V21.4095C28.9419 21.9239 29.3594 22.3414 29.8735 22.3414Z" fill="#515151"/>
<path d="M29.8735 30.7271H31.7369C32.2513 30.7271 32.6688 30.3096 32.6688 29.7952V26.0683C32.6688 25.5539 32.2513 25.1367 31.7369 25.1367H29.8735C29.3593 25.1367 28.9419 25.5539 28.9419 26.0683V29.7952C28.9419 30.3096 29.3594 30.7271 29.8735 30.7271Z" fill="#515151"/>
<path d="M14.9661 22.3414H16.8295C17.3437 22.3414 17.7611 21.9239 17.7611 21.4095V17.6826C17.7611 17.1684 17.3436 16.751 16.8295 16.751H14.9661C14.4517 16.751 14.0342 17.1685 14.0342 17.6826V21.4095C14.0342 21.9239 14.4517 22.3414 14.9661 22.3414Z" fill="#515151"/>
<path d="M39.1913 16.751H37.3278C36.8135 16.751 36.396 17.1685 36.396 17.6826V21.4095C36.396 21.9239 36.8135 22.3414 37.3278 22.3414H39.1913C39.7057 22.3414 40.1229 21.9239 40.1229 21.4095V17.6826C40.1229 17.1684 39.7057 16.751 39.1913 16.751Z" fill="#515151"/>
<path d="M17.7611 29.7952V26.0683C17.7611 25.5539 17.3436 25.1367 16.8295 25.1367H14.9661C14.4517 25.1367 14.0342 25.5539 14.0342 26.0683V29.7952C14.0342 30.3096 14.4517 30.7271 14.9661 30.7271H16.8295C17.3436 30.7271 17.7611 30.3096 17.7611 29.7952Z" fill="#515151"/>
<path d="M39.1913 25.1367H37.3278C36.8135 25.1367 36.396 25.5539 36.396 26.0683V29.7952C36.396 30.3096 36.8135 30.7271 37.3278 30.7271H39.1913C39.7057 30.7271 40.1229 30.3096 40.1229 29.7952V26.0683C40.1229 25.5539 39.7057 25.1367 39.1913 25.1367Z" fill="#515151"/>
<path d="M37.3275 34.454H16.8293C16.3149 34.454 15.8975 34.8714 15.8975 35.3858V36.3174C15.8975 36.8318 16.3149 37.2493 16.8293 37.2493H37.3275C37.8417 37.2493 38.2591 36.8318 38.2591 36.3174V35.3858C38.2591 34.8714 37.8417 34.454 37.3275 34.454Z" fill="#515151"/>
</svg>
