<svg width="74" height="45" viewBox="0 0 74 45" fill="none" xmlns="http://www.w3.org/2000/svg">
<rect width="74" height="44.8298" rx="20" fill="#FFD200"/>
<rect x="1.75" y="1.75" width="70.5" height="41.3298" rx="18.25" stroke="#515151" stroke-opacity="0.9" stroke-width="3.5"/>
<path d="M17.2 29.14C16.2267 29.14 15.3467 28.9733 14.56 28.64C13.7867 28.3067 13.1733 27.8267 12.72 27.2C12.2667 26.5733 12.0333 25.8333 12.02 24.98H15.02C15.06 25.5533 15.26 26.0067 15.62 26.34C15.9933 26.6733 16.5 26.84 17.14 26.84C17.7933 26.84 18.3067 26.6867 18.68 26.38C19.0533 26.06 19.24 25.6467 19.24 25.14C19.24 24.7267 19.1133 24.3867 18.86 24.12C18.6067 23.8533 18.2867 23.6467 17.9 23.5C17.5267 23.34 17.0067 23.1667 16.34 22.98C15.4333 22.7133 14.6933 22.4533 14.12 22.2C13.56 21.9333 13.0733 21.54 12.66 21.02C12.26 20.4867 12.06 19.78 12.06 18.9C12.06 18.0733 12.2667 17.3533 12.68 16.74C13.0933 16.1267 13.6733 15.66 14.42 15.34C15.1667 15.0067 16.02 14.84 16.98 14.84C18.42 14.84 19.5867 15.1933 20.48 15.9C21.3867 16.5933 21.8867 17.5667 21.98 18.82H18.9C18.8733 18.34 18.6667 17.9467 18.28 17.64C17.9067 17.32 17.4067 17.16 16.78 17.16C16.2333 17.16 15.7933 17.3 15.46 17.58C15.14 17.86 14.98 18.2667 14.98 18.8C14.98 19.1733 15.1 19.4867 15.34 19.74C15.5933 19.98 15.9 20.18 16.26 20.34C16.6333 20.4867 17.1533 20.66 17.82 20.86C18.7267 21.1267 19.4667 21.3933 20.04 21.66C20.6133 21.9267 21.1067 22.3267 21.52 22.86C21.9333 23.3933 22.14 24.0933 22.14 24.96C22.14 25.7067 21.9467 26.4 21.56 27.04C21.1733 27.68 20.6067 28.1933 19.86 28.58C19.1133 28.9533 18.2267 29.14 17.2 29.14ZM34.8675 23.22C34.8675 23.62 34.8408 23.98 34.7875 24.3H26.6875C26.7542 25.1 27.0342 25.7267 27.5275 26.18C28.0208 26.6333 28.6275 26.86 29.3475 26.86C30.3875 26.86 31.1275 26.4133 31.5675 25.52H34.5875C34.2675 26.5867 33.6542 27.4667 32.7475 28.16C31.8408 28.84 30.7275 29.18 29.4075 29.18C28.3408 29.18 27.3808 28.9467 26.5275 28.48C25.6875 28 25.0275 27.3267 24.5475 26.46C24.0808 25.5933 23.8475 24.5933 23.8475 23.46C23.8475 22.3133 24.0808 21.3067 24.5475 20.44C25.0142 19.5733 25.6675 18.9067 26.5075 18.44C27.3475 17.9733 28.3142 17.74 29.4075 17.74C30.4608 17.74 31.4008 17.9667 32.2275 18.42C33.0675 18.8733 33.7142 19.52 34.1675 20.36C34.6342 21.1867 34.8675 22.14 34.8675 23.22ZM31.9675 22.42C31.9542 21.7 31.6942 21.1267 31.1875 20.7C30.6808 20.26 30.0608 20.04 29.3275 20.04C28.6342 20.04 28.0475 20.2533 27.5675 20.68C27.1008 21.0933 26.8142 21.6733 26.7075 22.42H31.9675ZM43.0513 17.76C44.3713 17.76 45.4379 18.18 46.2513 19.02C47.0646 19.8467 47.4713 21.0067 47.4713 22.5V29H44.6713V22.88C44.6713 22 44.4513 21.3267 44.0113 20.86C43.5713 20.38 42.9713 20.14 42.2113 20.14C41.4379 20.14 40.8246 20.38 40.3713 20.86C39.9313 21.3267 39.7113 22 39.7113 22.88V29H36.9113V17.92H39.7113V19.3C40.0846 18.82 40.5579 18.4467 41.1313 18.18C41.7179 17.9 42.3579 17.76 43.0513 17.76ZM49.4139 23.42C49.4139 22.3 49.6339 21.3067 50.0739 20.44C50.5272 19.5733 51.1406 18.9067 51.9139 18.44C52.6872 17.9733 53.5472 17.74 54.4939 17.74C55.2139 17.74 55.9006 17.9 56.5539 18.22C57.2072 18.5267 57.7272 18.94 58.1139 19.46V14.2H60.9539V29H58.1139V27.36C57.7672 27.9067 57.2806 28.3467 56.6539 28.68C56.0272 29.0133 55.3006 29.18 54.4739 29.18C53.5406 29.18 52.6872 28.94 51.9139 28.46C51.1406 27.98 50.5272 27.3067 50.0739 26.44C49.6339 25.56 49.4139 24.5533 49.4139 23.42ZM58.1339 23.46C58.1339 22.78 58.0006 22.2 57.7339 21.72C57.4672 21.2267 57.1072 20.8533 56.6539 20.6C56.2006 20.3333 55.7139 20.2 55.1939 20.2C54.6739 20.2 54.1939 20.3267 53.7539 20.58C53.3139 20.8333 52.9539 21.2067 52.6739 21.7C52.4072 22.18 52.2739 22.7533 52.2739 23.42C52.2739 24.0867 52.4072 24.6733 52.6739 25.18C52.9539 25.6733 53.3139 26.0533 53.7539 26.32C54.2072 26.5867 54.6872 26.72 55.1939 26.72C55.7139 26.72 56.2006 26.5933 56.6539 26.34C57.1072 26.0733 57.4672 25.7 57.7339 25.22C58.0006 24.7267 58.1339 24.14 58.1339 23.46Z" fill="#515151" fill-opacity="0.9"/>
</svg>
