<svg width="160" height="161" viewBox="0 0 160 161" fill="none" xmlns="http://www.w3.org/2000/svg">
<g filter="url(#filter0_d)">
<ellipse cx="80" cy="75.5" rx="76" ry="75.5" fill="#FFD200"/>
</g>
<path d="M24.3742 55.5C24.3742 53.44 24.8342 51.6 25.7542 49.98C26.6942 48.34 27.9642 47.07 29.5642 46.17C31.1842 45.25 32.9942 44.79 34.9942 44.79C37.3342 44.79 39.3842 45.39 41.1442 46.59C42.9042 47.79 44.1342 49.45 44.8342 51.57H40.0042C39.5242 50.57 38.8442 49.82 37.9642 49.32C37.1042 48.82 36.1042 48.57 34.9642 48.57C33.7442 48.57 32.6542 48.86 31.6942 49.44C30.7542 50 30.0142 50.8 29.4742 51.84C28.9542 52.88 28.6942 54.1 28.6942 55.5C28.6942 56.88 28.9542 58.1 29.4742 59.16C30.0142 60.2 30.7542 61.01 31.6942 61.59C32.6542 62.15 33.7442 62.43 34.9642 62.43C36.1042 62.43 37.1042 62.18 37.9642 61.68C38.8442 61.16 39.5242 60.4 40.0042 59.4H44.8342C44.1342 61.54 42.9042 63.21 41.1442 64.41C39.4042 65.59 37.3542 66.18 34.9942 66.18C32.9942 66.18 31.1842 65.73 29.5642 64.83C27.9642 63.91 26.6942 62.64 25.7542 61.02C24.8342 59.4 24.3742 57.56 24.3742 55.5ZM52.6216 43.8V66H48.4216V43.8H52.6216ZM58.9012 47.4C58.1612 47.4 57.5412 47.17 57.0412 46.71C56.5612 46.23 56.3212 45.64 56.3212 44.94C56.3212 44.24 56.5612 43.66 57.0412 43.2C57.5412 42.72 58.1612 42.48 58.9012 42.48C59.6412 42.48 60.2512 42.72 60.7312 43.2C61.2312 43.66 61.4812 44.24 61.4812 44.94C61.4812 45.64 61.2312 46.23 60.7312 46.71C60.2512 47.17 59.6412 47.4 58.9012 47.4ZM60.9712 49.38V66H56.7712V49.38H60.9712ZM64.0408 57.69C64.0408 55.97 64.3908 54.47 65.0908 53.19C65.7908 51.89 66.7608 50.89 68.0008 50.19C69.2408 49.47 70.6608 49.11 72.2608 49.11C74.3208 49.11 76.0208 49.63 77.3608 50.67C78.7208 51.69 79.6308 53.13 80.0908 54.99H75.5608C75.3208 54.27 74.9108 53.71 74.3308 53.31C73.7708 52.89 73.0708 52.68 72.2308 52.68C71.0308 52.68 70.0808 53.12 69.3808 54C68.6808 54.86 68.3308 56.09 68.3308 57.69C68.3308 59.27 68.6808 60.5 69.3808 61.38C70.0808 62.24 71.0308 62.67 72.2308 62.67C73.9308 62.67 75.0408 61.91 75.5608 60.39H80.0908C79.6308 62.19 78.7208 63.62 77.3608 64.68C76.0008 65.74 74.3008 66.27 72.2608 66.27C70.6608 66.27 69.2408 65.92 68.0008 65.22C66.7608 64.5 65.7908 63.5 65.0908 62.22C64.3908 60.92 64.0408 59.41 64.0408 57.69ZM93.0077 66L87.3677 58.92V66H83.1677V43.8H87.3677V56.43L92.9477 49.38H98.4077L91.0877 57.72L98.4677 66H93.0077ZM112.726 52.83V60.87C112.726 61.43 112.856 61.84 113.116 62.1C113.396 62.34 113.856 62.46 114.496 62.46H116.446V66H113.806C110.266 66 108.496 64.28 108.496 60.84V52.83H106.516V49.38H108.496V45.27H112.726V49.38H116.446V52.83H112.726ZM126.846 66.27C125.246 66.27 123.806 65.92 122.526 65.22C121.246 64.5 120.236 63.49 119.496 62.19C118.776 60.89 118.416 59.39 118.416 57.69C118.416 55.99 118.786 54.49 119.526 53.19C120.286 51.89 121.316 50.89 122.616 50.19C123.916 49.47 125.366 49.11 126.966 49.11C128.566 49.11 130.016 49.47 131.316 50.19C132.616 50.89 133.636 51.89 134.376 53.19C135.136 54.49 135.516 55.99 135.516 57.69C135.516 59.39 135.126 60.89 134.346 62.19C133.586 63.49 132.546 64.5 131.226 65.22C129.926 65.92 128.466 66.27 126.846 66.27ZM126.846 62.61C127.606 62.61 128.316 62.43 128.976 62.07C129.656 61.69 130.196 61.13 130.596 60.39C130.996 59.65 131.196 58.75 131.196 57.69C131.196 56.11 130.776 54.9 129.936 54.06C129.116 53.2 128.106 52.77 126.906 52.77C125.706 52.77 124.696 53.2 123.876 54.06C123.076 54.9 122.676 56.11 122.676 57.69C122.676 59.27 123.066 60.49 123.846 61.35C124.646 62.19 125.646 62.61 126.846 62.61ZM51.1811 119.245C49.4777 119.245 47.9377 118.953 46.5611 118.37C45.2077 117.787 44.1344 116.947 43.3411 115.85C42.5477 114.753 42.1394 113.458 42.1161 111.965H47.3661C47.4361 112.968 47.7861 113.762 48.4161 114.345C49.0694 114.928 49.9561 115.22 51.0761 115.22C52.2194 115.22 53.1177 114.952 53.7711 114.415C54.4244 113.855 54.7511 113.132 54.7511 112.245C54.7511 111.522 54.5294 110.927 54.0861 110.46C53.6427 109.993 53.0827 109.632 52.4061 109.375C51.7527 109.095 50.8427 108.792 49.6761 108.465C48.0894 107.998 46.7944 107.543 45.7911 107.1C44.8111 106.633 43.9594 105.945 43.2361 105.035C42.5361 104.102 42.1861 102.865 42.1861 101.325C42.1861 99.8783 42.5477 98.6183 43.2711 97.545C43.9944 96.4717 45.0094 95.655 46.3161 95.095C47.6227 94.5117 49.1161 94.22 50.7961 94.22C53.3161 94.22 55.3577 94.8383 56.9211 96.075C58.5077 97.2883 59.3827 98.9917 59.5461 101.185H54.1561C54.1094 100.345 53.7477 99.6567 53.0711 99.12C52.4177 98.56 51.5427 98.28 50.4461 98.28C49.4894 98.28 48.7194 98.525 48.1361 99.015C47.5761 99.505 47.2961 100.217 47.2961 101.15C47.2961 101.803 47.5061 102.352 47.9261 102.795C48.3694 103.215 48.9061 103.565 49.5361 103.845C50.1894 104.102 51.0994 104.405 52.2661 104.755C53.8527 105.222 55.1477 105.688 56.1511 106.155C57.1544 106.622 58.0177 107.322 58.7411 108.255C59.4644 109.188 59.8261 110.413 59.8261 111.93C59.8261 113.237 59.4877 114.45 58.8111 115.57C58.1344 116.69 57.1427 117.588 55.8361 118.265C54.5294 118.918 52.9777 119.245 51.1811 119.245ZM69.7792 103.635V113.015C69.7792 113.668 69.9308 114.147 70.2342 114.45C70.5608 114.73 71.0975 114.87 71.8442 114.87H74.1192V119H71.0392C66.9092 119 64.8442 116.993 64.8442 112.98V103.635H62.5342V99.61H64.8442V94.815H69.7792V99.61H74.1192V103.635H69.7792ZM76.3835 109.235C76.3835 107.275 76.7685 105.537 77.5385 104.02C78.3318 102.503 79.3935 101.337 80.7235 100.52C82.0768 99.7033 83.5818 99.295 85.2385 99.295C86.6852 99.295 87.9452 99.5867 89.0185 100.17C90.1152 100.753 90.9902 101.488 91.6435 102.375V99.61H96.5785V119H91.6435V116.165C91.0135 117.075 90.1385 117.833 89.0185 118.44C87.9218 119.023 86.6502 119.315 85.2035 119.315C83.5702 119.315 82.0768 118.895 80.7235 118.055C79.3935 117.215 78.3318 116.037 77.5385 114.52C76.7685 112.98 76.3835 111.218 76.3835 109.235ZM91.6435 109.305C91.6435 108.115 91.4102 107.1 90.9435 106.26C90.4768 105.397 89.8468 104.743 89.0535 104.3C88.2602 103.833 87.4085 103.6 86.4985 103.6C85.5885 103.6 84.7485 103.822 83.9785 104.265C83.2085 104.708 82.5785 105.362 82.0885 106.225C81.6218 107.065 81.3885 108.068 81.3885 109.235C81.3885 110.402 81.6218 111.428 82.0885 112.315C82.5785 113.178 83.2085 113.843 83.9785 114.31C84.7718 114.777 85.6118 115.01 86.4985 115.01C87.4085 115.01 88.2602 114.788 89.0535 114.345C89.8468 113.878 90.4768 113.225 90.9435 112.385C91.4102 111.522 91.6435 110.495 91.6435 109.305ZM106.264 102.62C106.894 101.593 107.711 100.788 108.714 100.205C109.741 99.6217 110.908 99.33 112.214 99.33V104.475H110.919C109.379 104.475 108.213 104.837 107.419 105.56C106.649 106.283 106.264 107.543 106.264 109.34V119H101.364V99.61H106.264V102.62ZM121.22 103.635V113.015C121.22 113.668 121.371 114.147 121.675 114.45C122.001 114.73 122.538 114.87 123.285 114.87H125.56V119H122.48C118.35 119 116.285 116.993 116.285 112.98V103.635H113.975V99.61H116.285V94.815H121.22V99.61H125.56V103.635H121.22Z" fill="white"/>
<defs>
<filter id="filter0_d" x="0" y="0" width="160" height="161" filterUnits="userSpaceOnUse" color-interpolation-filters="sRGB">
<feFlood flood-opacity="0" result="BackgroundImageFix"/>
<feColorMatrix in="SourceAlpha" type="matrix" values="0 0 0 0 0 0 0 0 0 0 0 0 0 0 0 0 0 0 127 0"/>
<feOffset dy="6"/>
<feGaussianBlur stdDeviation="2"/>
<feColorMatrix type="matrix" values="0 0 0 0 0 0 0 0 0 0 0 0 0 0 0 0 0 0 0.25 0"/>
<feBlend mode="normal" in2="BackgroundImageFix" result="effect1_dropShadow"/>
<feBlend mode="normal" in="SourceGraphic" in2="effect1_dropShadow" result="shape"/>
</filter>
</defs>
</svg>
