<svg width="22" height="11" viewBox="0 0 22 11" fill="none" xmlns="http://www.w3.org/2000/svg">
<path d="M1.39117 0.70696C1.26709 0.810627 1.16866 0.93378 1.10149 1.06936C1.03433 1.20495 0.999756 1.3503 0.999756 1.49709C0.999756 1.64389 1.03433 1.78924 1.10149 1.92482C1.16866 2.06041 1.26709 2.18356 1.39117 2.28722L10.2482 9.70643C10.3468 9.7892 10.4639 9.85486 10.5929 9.89967C10.7218 9.94447 10.86 9.96753 10.9996 9.96753C11.1392 9.96753 11.2774 9.94447 11.4064 9.89967C11.5353 9.85486 11.6524 9.7892 11.751 9.70643L20.6081 2.28722C21.1303 1.84975 21.1303 1.14443 20.6081 0.70696C20.0858 0.269485 19.2438 0.269485 18.7215 0.70696L10.9943 7.17087L3.26702 0.698032C2.75543 0.269486 1.90276 0.269485 1.39117 0.70696Z" fill="#18172B" stroke="#18172B" stroke-width="0.4"/>
</svg>
