<svg width="13" height="22" viewBox="0 0 13 22" fill="none" xmlns="http://www.w3.org/2000/svg">
<path d="M1.39299 20.6086C1.51675 20.7327 1.66376 20.8311 1.82563 20.8983C1.98748 20.9654 2.16101 21 2.33625 21C2.51149 21 2.68501 20.9654 2.84687 20.8983C3.00873 20.8311 3.15575 20.7327 3.27951 20.6086L12.1365 11.7516C12.2354 11.6529 12.3137 11.5358 12.3672 11.4069C12.4207 11.278 12.4482 11.1397 12.4482 11.0001C12.4482 10.8606 12.4207 10.7223 12.3672 10.5934C12.3137 10.4645 12.2354 10.3473 12.1365 10.2487L3.27951 1.39169C2.75725 0.869432 1.91524 0.869432 1.39299 1.39169C0.870731 1.91395 0.870731 2.75595 1.39299 3.27821L9.10959 11.0055L1.38233 18.7327C0.870733 19.2443 0.870731 20.097 1.39299 20.6086Z" fill="#18172B" stroke="#18172B" stroke-width="0.4"/>
</svg>
