<svg width="11" height="19" viewBox="0 0 11 19" fill="none" xmlns="http://www.w3.org/2000/svg">
<path d="M9.86299 1.52753C9.75488 1.41916 9.62646 1.33317 9.48508 1.2745C9.3437 1.21584 9.19213 1.18564 9.03905 1.18564C8.88598 1.18564 8.73441 1.21584 8.59303 1.2745C8.45165 1.33317 8.32323 1.41916 8.21513 1.52753L0.478563 9.26409C0.392256 9.35022 0.323784 9.45253 0.277065 9.56516C0.230347 9.67778 0.206299 9.79851 0.206299 9.92045C0.206299 10.0424 0.230347 10.1631 0.277065 10.2757C0.323784 10.3884 0.392256 10.4907 0.478563 10.5768L8.21513 18.3134C8.67131 18.7695 9.4068 18.7695 9.86299 18.3134C10.3192 17.8572 10.3192 17.1217 9.86299 16.6655L3.12259 9.91579L9.87229 3.16608C10.3192 2.7192 10.3192 1.97441 9.86299 1.52753Z" fill="#18172B" stroke="#18172B" stroke-width="0.4"/>
</svg>
